HIERARCHY
ROOT Hips
{
	OFFSET -0.179506 -22.333345 2.821913
	CHANNELS 6 Xposition Yposition Zposition Zrotation Yrotation Xrotation 
	JOINT LeftUpLeg
	{
		OFFSET 6.951974 -9.140623 -0.681533
		CHANNELS 3 Zrotation Yrotation Xrotation
		JOINT LeftLeg
		{
			OFFSET 3.427654 -37.519855 -0.449580
			CHANNELS 3 Zrotation Yrotation Xrotation
			JOINT LeftFoot
			{
				OFFSET -1.359570 -39.796059 -4.369333
				CHANNELS 3 Zrotation Yrotation Xrotation
				JOINT LeftToe
				{
					OFFSET 2.635814 -5.579078 11.928840
					CHANNELS 3 Zrotation Yrotation Xrotation
					End Site
					{
						OFFSET 0.000000 0.000000 0.000000
					}
				}
			}
		}
	}
	JOINT RightUpLeg
	{
		OFFSET -6.767048 -9.052170 -0.431982
		CHANNELS 3 Zrotation Yrotation Xrotation
		JOINT RightLeg
		{
			OFFSET -3.829005 -38.256897 -0.885003
			CHANNELS 3 Zrotation Yrotation Xrotation
			JOINT RightFoot
			{
				OFFSET 1.577377 -39.841461 -4.231180
				CHANNELS 3 Zrotation Yrotation Xrotation
				JOINT RightToe
				{
					OFFSET -2.537174 -4.814398 12.334795
					CHANNELS 3 Zrotation Yrotation Xrotation
					End Site
					{
						OFFSET 0.000000 0.000000 0.000000
					}
				}
			}
		}
	}
	JOINT Spine
	{
		OFFSET -0.253288 10.896323 -2.669631
		CHANNELS 3 Zrotation Yrotation Xrotation
		JOINT Spine1
		{
			OFFSET 0.548704 13.518043 0.109247
			CHANNELS 3 Zrotation Yrotation Xrotation
			JOINT Spine2
			{
				OFFSET 0.145701 5.292222 2.542457
				CHANNELS 3 Zrotation Yrotation Xrotation
				JOINT Neck
				{
					OFFSET -0.277840 21.387037 -4.285703
					CHANNELS 3 Zrotation Yrotation Xrotation
					JOINT Head
					{
						OFFSET 0.515184 6.496960 5.134897
						CHANNELS 3 Zrotation Yrotation Xrotation
						End Site
						{
							OFFSET 0.000000 0.000000 0.000000
						}
					}
				}
				JOINT LeftShoulder
				{
					OFFSET 7.884473 12.174932 -3.408961
					CHANNELS 3 Zrotation Yrotation Xrotation
					JOINT LeftArm
					{
						OFFSET 9.097692 3.046888 -0.886815
						CHANNELS 3 Zrotation Yrotation Xrotation
						JOINT LeftForeArm
						{
							OFFSET 25.961220 -1.277207 -2.745643
							CHANNELS 3 Zrotation Yrotation Xrotation
							JOINT LeftHand
							{
								OFFSET 24.923361 0.898606 -0.117091
								CHANNELS 3 Zrotation Yrotation Xrotation
								End Site
								{
									OFFSET 0.000000 0.000000 0.000000
								}
							}
						}
					}
				}
				JOINT RightShoulder
				{
					OFFSET -8.175920 11.883285 -3.861528
					CHANNELS 3 Zrotation Yrotation Xrotation
					JOINT RightArm
					{
						OFFSET -9.601238 3.255117 -0.914307
						CHANNELS 3 Zrotation Yrotation Xrotation
						JOINT RightForeArm
						{
							OFFSET -25.374195 -1.332924 -2.140099
							CHANNELS 3 Zrotation Yrotation Xrotation
							JOINT RightHand
							{
								OFFSET -25.529810 0.777228 -0.555919
								CHANNELS 3 Zrotation Yrotation Xrotation
								End Site
								{
									OFFSET 0.000000 0.000000 0.000000
								}
							}
						}
					}
				}
			}
		}
	}
}
MOTION
Frames: 13
Frame Time: 0.033333
-49.036030 114.464790 90.441795 131.181621 -1.335751 90.542253 12.058060 9.595757 -11.819962 -1.473360 17.580634 14.076751 4.339751 13.410443 -8.128671 nan nan nan -12.558368 -3.641283 -8.465562 -0.227934 -4.168302 19.475369 5.821279 0.596111 -5.736089 nan nan nan 0.314397 0.796229 -0.352168 -1.556039 -4.496765 8.037862 -4.094630 1.077292 -3.950042 4.840549 18.504322 20.943869 -4.162485 15.985626 15.868400 -16.011331 -1.694006 -5.977495 -46.678392 -13.283150 8.187863 136.277973 -45.849143 -103.804671 14.349831 -11.675747 -6.876769 14.681432 14.618767 1.487429 63.188191 31.850715 27.957293 -171.460452 70.004088 -149.738459 -7.519822 12.608391 -20.279246 
-49.033829 114.500992 90.448029 131.132578 -1.226095 90.745911 12.259296 9.248816 -11.971018 -1.065232 19.339604 14.172257 4.198962 12.226298 -8.391514 nan nan nan -12.535834 -2.964826 -8.632743 -0.349302 -5.436325 19.482764 5.796197 2.147328 -6.417535 nan nan nan 0.236185 1.088681 -0.750478 -1.423473 -4.271179 8.866872 -3.976295 0.882544 -5.084579 6.823952 19.380886 22.457703 -4.763067 14.134505 16.125725 -16.158390 -1.598536 -7.172585 -54.987952 -17.597244 10.669421 132.705127 -42.864011 -97.722383 3.340259 -14.575506 -4.183899 15.109555 13.857270 1.110131 69.398032 28.984608 30.485669 -162.280775 69.313497 -138.016566 1.539275 14.753710 -19.696795 
-49.052387 114.499565 90.434578 131.103930 -1.208726 90.800487 12.251959 9.238337 -12.072208 -1.007177 19.299620 14.242208 4.227243 12.305474 -8.450646 nan nan nan -12.521329 -2.915231 -8.784805 -0.283182 -5.370449 19.590617 5.804686 2.217843 -6.478094 nan nan nan 0.320769 1.051196 -0.743387 -1.420703 -4.258539 8.761495 -3.978499 0.876851 -5.070387 6.702474 19.400632 22.545929 -4.785661 14.238281 16.031514 -16.042984 -1.437267 -7.184073 -54.789413 -17.081908 10.667543 132.878597 -43.180059 -98.057615 3.963765 -14.688727 -4.520991 14.859380 13.862405 1.023604 69.033457 29.041112 30.449474 -162.753923 69.373748 -139.115920 1.204875 15.048658 -20.766903 
-49.040623 114.492599 90.417191 131.093821 -1.060210 90.643039 12.436814 9.265640 -11.825898 -1.080972 19.080366 14.172414 4.289823 12.419259 -8.157817 nan nan nan -12.389213 -2.774281 -8.451864 0.034226 -4.973709 19.381598 5.711905 2.548698 -6.697116 nan nan nan 0.252494 0.957381 -0.488611 -0.969631 -4.327757 8.776913 -3.639431 0.707181 -4.283002 5.978598 19.301683 21.339086 -6.456157 13.917263 14.602398 -15.402118 -0.830738 -7.358942 -54.343676 -15.547308 9.935451 134.313597 -44.023934 -99.613693 6.415158 -14.698011 -4.905572 15.571060 14.404765 0.431131 68.371335 29.338750 30.396531 -164.531223 69.026776 -142.596828 0.569983 14.737100 -20.807158 
-49.037601 114.622292 90.411133 131.170380 -0.647688 90.433765 12.921329 9.541876 -11.702576 -1.138619 19.044909 14.270552 3.946176 12.324938 -8.187515 nan nan nan -12.032501 -2.525767 -8.120150 0.202864 -5.122903 19.114615 5.442345 3.072625 -7.093660 nan nan nan -0.307332 1.284458 -1.071760 -0.355104 -4.656771 9.978348 -2.562765 0.440329 -4.274530 5.788826 19.221317 21.736706 -7.031063 14.056582 13.589286 -16.322753 -3.938342 -5.175392 -56.041003 -15.739161 8.014515 134.759942 -41.297559 -98.872713 4.331011 -15.775737 -2.726403 15.053559 16.424169 -0.004921 67.288810 27.977364 28.807238 -163.267168 68.236043 -140.700983 2.461095 15.501982 -20.287906 
-49.025223 114.693352 90.370239 131.112269 -0.713555 90.427904 12.866535 9.723071 -11.714240 -1.205743 19.316585 14.241853 3.847104 12.187622 -8.155625 nan nan nan -12.158851 -2.696122 -8.271105 -0.076062 -5.386735 19.221237 5.166907 2.930172 -7.796518 nan nan nan -0.239040 1.246567 -0.963047 -0.415427 -4.604765 10.043743 -2.631621 0.442902 -4.488438 6.016113 19.307610 21.631109 -7.153762 14.031765 13.764858 -16.421985 -3.575208 -5.104209 -56.177636 -15.941073 8.229576 135.026752 -41.904951 -98.556712 4.748233 -15.720806 -0.368342 15.032915 16.242816 -0.003855 67.809762 28.116769 29.170803 -163.084419 68.552944 -140.339890 2.307232 15.849704 -19.503423 
-48.993549 114.756226 90.352585 131.102714 -0.759437 90.302022 12.833436 9.826621 -11.555921 -1.329541 19.140830 14.117521 3.876076 12.311309 -8.113785 nan nan nan -12.218854 -2.910607 -8.217162 -0.350441 -5.481940 19.272931 5.061920 2.483618 -7.921463 nan nan nan -0.236259 1.124547 -0.767959 -0.358792 -4.595038 9.701588 -2.663066 0.486972 -4.143568 5.766517 19.328901 21.540419 -7.220452 14.270222 13.463066 -15.996128 -2.969141 -4.718393 -55.274276 -14.733337 7.881184 135.889725 -43.225068 -99.426083 7.618390 -15.575866 -0.622652 15.028420 16.047742 0.126698 67.866475 28.624151 29.045068 -164.111723 69.082226 -141.505146 0.892285 15.934384 -19.134530 
-48.958050 114.800285 90.333931 131.071366 -0.787222 90.219892 12.844750 9.829877 -11.398006 -1.352769 19.159300 14.049345 3.822466 12.227450 -8.138541 nan nan nan -12.287871 -2.997163 -8.168685 -0.441199 -5.595067 19.363190 4.919928 2.382254 -8.189508 nan nan nan -0.173708 1.087008 -0.638871 -0.428280 -4.581805 9.657133 -2.711895 0.482529 -4.171289 5.868158 19.397277 21.435965 -7.232652 14.293191 13.609414 -16.039833 -2.928480 -4.787917 -55.381711 -14.766439 7.999524 135.842142 -43.259269 -99.361789 7.590424 -15.647936 -0.369582 15.004409 16.047571 0.130175 68.110701 28.640421 29.192447 -163.919013 69.152874 -141.285520 1.269302 16.064125 -18.959272 
-49.047630 114.830009 90.309563 131.014598 -0.768961 90.344974 12.790513 9.754364 -11.589681 -1.250400 19.272771 14.103733 3.801693 12.191420 -8.044287 nan nan nan -12.394043 -2.868278 -8.421824 -0.080128 -5.433407 19.462954 4.846849 2.767760 -8.752500 nan nan nan 0.067125 1.020283 -0.579384 -0.521327 -4.555717 9.547637 -2.759827 0.488200 -4.202506 5.832542 19.438315 21.445527 -7.397509 14.300374 13.397754 -16.129885 -2.899020 -4.892467 -55.573508 -14.797019 8.058289 135.823395 -43.256564 -99.208120 7.293803 -15.951256 -0.052222 14.682429 16.050350 -0.075817 68.565360 28.563352 29.402845 -163.911112 69.198095 -141.459594 1.549507 16.254994 -19.170304 
-49.023205 114.833931 90.277245 131.010015 -0.756344 90.329125 12.851540 9.782842 -11.573941 -1.249849 19.313804 14.150793 3.824210 12.122842 -8.085843 nan nan nan -12.368764 -2.837813 -8.381587 0.031359 -5.361691 19.431541 4.920270 2.929948 -8.677791 nan nan nan 0.092681 0.984067 -0.522986 -0.527301 -4.555249 9.484027 -2.782943 0.482450 -4.165780 5.896137 19.496013 21.351589 -7.446134 14.221997 13.431948 -16.064722 -2.865241 -4.900248 -55.666035 -14.887432 8.117565 135.821208 -43.280324 -99.177362 7.264877 -16.009876 -0.077838 14.611921 16.037901 -0.100423 68.885562 28.553315 29.566029 -164.082097 69.191317 -141.519375 1.513357 16.238602 -19.186434 
-49.003624 114.841118 90.251518 130.981335 -0.742645 90.254272 12.900837 9.853993 -11.473503 -1.235200 19.324700 14.188837 3.846060 12.113961 -8.120322 nan nan nan -12.335602 -2.839020 -8.295992 -0.014691 -5.320288 19.451061 4.890190 2.893135 -8.766491 nan nan nan 0.125755 0.970229 -0.430990 -0.544314 -4.538134 9.481678 -2.790258 0.491012 -4.151108 5.938486 19.556199 21.275139 -7.474644 14.176686 13.453184 -16.024425 -2.922878 -4.876327 -55.700009 -14.936627 8.099481 135.844272 -43.269711 -99.083949 7.253722 -16.030700 -0.098673 14.545100 16.067709 -0.115326 69.094208 28.495961 29.635634 -164.293437 69.145250 -141.590046 1.466733 16.208391 -19.247111 
-48.975334 114.850105 90.276146 130.945277 -0.383517 90.125881 13.283048 10.417526 -11.485274 -1.245479 18.603067 14.453343 3.271824 12.251817 -7.979524 nan nan nan -12.092611 -2.109669 -7.892474 2.400747 -2.162271 19.654313 2.023496 4.956520 -22.399127 nan nan nan 0.813889 1.049453 -0.301532 -0.952967 -4.730762 9.692083 -2.547328 0.441583 -4.252370 5.123025 19.423015 21.381318 -7.330162 14.744482 12.664388 -16.254958 -2.787790 -4.829469 -55.818760 -15.175681 7.530899 135.959147 -43.420027 -98.846614 6.498859 -16.631743 0.503024 13.886544 16.080037 -0.452208 69.880018 28.448014 30.007087 -164.018403 69.367310 -141.692735 1.898046 17.223904 -20.142598 
-48.929554 114.875092 90.255234 130.995827 -0.385888 90.060722 13.357239 10.400395 -11.443527 -1.274985 18.572219 14.547246 3.272372 12.294745 -8.056233 nan nan nan -12.083204 -2.107483 -7.643497 2.399073 -2.155186 19.406167 2.167358 4.853284 -22.247009 nan nan nan 0.797714 1.049131 -0.298545 -0.959873 -4.760413 9.631879 -2.548677 0.433471 -4.078756 5.171413 19.370000 21.216565 -7.373714 14.738242 12.781617 -16.161400 -2.748917 -4.812841 -55.960821 -15.302147 7.548928 135.989743 -43.561524 -98.724757 6.691068 -16.641682 0.557820 13.791232 16.054670 -0.504750 70.176544 28.484838 30.066306 -164.092101 69.392404 -141.652212 1.849325 17.139691 -20.071287 
